<?xml version="1.0" encoding="UTF-8"?>
<svg version="1.1" xmlns="http://www.w3.org/2000/svg" width="500" height="500">
<path d="M0 0 C0 0.66 0 1.32 0 2 C0.66 2 1.32 2 2 2 C10.14877231 10.1254901 12.38152638 19.94640615 12.5 31.0625 C12.44850038 38.40526206 11.70018196 44.51792941 8 51 C7.32963735 52.33147893 6.66189201 53.66429 6 55 C5.34 55 4.68 55 4 55 C4 55.66 4 56.32 4 57 C3.34 57 2.68 57 2 57 C1.61328125 57.89332031 1.61328125 57.89332031 1.21875 58.8046875 C-0.09933053 61.17892229 -1.40066806 62.42596441 -3.5 64.125 C-5.4295694 65.70299531 -7.23458294 67.23458294 -9 69 C-7.58460938 69.41958984 -7.58460938 69.41958984 -6.140625 69.84765625 C5.76915644 73.51148481 17.48366169 78.50678758 26 88 C26 88.66 26 89.32 26 90 C26.66 90 27.32 90 28 90 C35.42008916 101.76874797 38.14222043 114.41755889 38.3125 128.1875 C38.34150391 128.98091797 38.37050781 129.77433594 38.40039062 130.59179688 C38.40876953 131.35943359 38.41714844 132.12707031 38.42578125 132.91796875 C38.44765503 133.95087036 38.44765503 133.95087036 38.4699707 135.00463867 C37.77761273 137.9441928 36.29871349 139.09235018 34 141 C31.55119324 141.50336456 31.55119324 141.50336456 28.76245117 141.50793457 C27.70254974 141.51921387 26.64264832 141.53049316 25.55062866 141.54211426 C24.39310089 141.53401733 23.23557312 141.52592041 22.04296875 141.51757812 C20.81985992 141.5245874 19.5967511 141.53159668 18.33657837 141.53881836 C14.9850662 141.55340783 11.6345417 141.54998811 8.28308487 141.53730202 C4.77489144 141.52717041 1.26674002 141.53656813 -2.24145508 141.54284668 C-8.13272677 141.55012266 -14.02379784 141.54053685 -19.91503906 141.52148438 C-26.72483682 141.49971549 -33.53415554 141.50676691 -40.34394169 141.52879 C-46.19206116 141.54694558 -52.04003646 141.54950163 -57.88817501 141.53903532 C-61.38041472 141.53280116 -64.87242932 141.53196234 -68.36465454 141.54518127 C-72.25761517 141.55888794 -76.15003981 141.53988736 -80.04296875 141.51757812 C-81.20049652 141.52567505 -82.35802429 141.53377197 -83.55062866 141.54211426 C-84.61053009 141.53083496 -85.67043152 141.51955566 -86.76245117 141.50793457 C-88.14287849 141.50567242 -88.14287849 141.50567242 -89.55119324 141.50336456 C-92.75864527 140.84405664 -93.96529446 139.50838362 -96 137 C-96.48583984 134.90039062 -96.48583984 134.90039062 -96.4609375 132.65625 C-96.45876221 131.82786621 -96.45658691 130.99948242 -96.4543457 130.14599609 C-96.42816162 129.27281738 -96.40197754 128.39963867 -96.375 127.5 C-96.35848389 126.6023291 -96.34196777 125.7046582 -96.32495117 124.77978516 C-95.92259614 109.43498758 -92.6274109 97.48446016 -82 86 C-72.10330169 76.85305156 -60.86773202 72.19345174 -48 69 C-48.56847656 68.5875 -49.13695312 68.175 -49.72265625 67.75 C-59.34413032 60.55397265 -67.39031069 52.1300931 -70 40 C-71.21125998 26.04294366 -70.07203617 15.14890186 -60.91796875 4.1015625 C-42.85761753 -15.68757997 -21.05796052 -14.03864034 0 0 Z " fill="#4E6B78" transform="translate(183,253)"/>
<path d="M0 0 C3.6924062 2.70979055 6.88308761 5.64961103 10 9 C10.78503906 9.83144531 10.78503906 9.83144531 11.5859375 10.6796875 C17.72213203 18.15468811 19.70057661 28.72939365 19.31640625 38.16015625 C17.99203633 50.04678507 12.11380209 60.31341524 3 68 C1.04324245 69.44929076 -0.91789215 70.73042205 -3 72 C-1.845 72.33 -0.69 72.66 0.5 73 C15.09720759 77.89653166 29.73656309 85.57191503 38 99 C42.97152441 109.19162505 44.11632788 120.36353396 44.4375 131.5625 C44.47198242 132.24143311 44.50646484 132.92036621 44.54199219 133.61987305 C44.56981341 136.88191176 44.29034675 138.64962339 42.19081116 141.1832428 C37.35991252 143.93381921 32.85720495 143.54946276 27.38842773 143.50170898 C26.21394073 143.50711197 25.03945374 143.51251495 23.82937622 143.51808167 C20.61645793 143.52843277 17.4042107 143.52088241 14.19133639 143.50437045 C10.82596358 143.49049707 7.46062121 143.4969825 4.0952301 143.50050354 C-1.55468372 143.5032035 -7.20438484 143.48974745 -12.85424805 143.46655273 C-19.3839673 143.43993127 -25.91333126 143.43820067 -32.44308621 143.4499411 C-38.72915726 143.46072334 -45.01509994 143.4545292 -51.30116081 143.44038582 C-53.97453793 143.43463113 -56.64782094 143.43470455 -59.32119942 143.43945122 C-63.05362651 143.44235498 -66.78546896 143.42589576 -70.51782227 143.40405273 C-71.6270253 143.40855438 -72.73622833 143.41305603 -73.87904358 143.41769409 C-74.89542908 143.40778946 -75.91181458 143.39788483 -76.95899963 143.38768005 C-78.28217115 143.38403521 -78.28217115 143.38403521 -79.6320734 143.38031673 C-82.52111376 142.91630303 -83.90156469 142.01571591 -86 140 C-86.87168225 135.43054987 -86.60164914 130.7676274 -86.5625 126.125 C-86.58634766 124.86429688 -86.61019531 123.60359375 -86.63476562 122.3046875 C-86.61345137 108.49304793 -82.64954868 98.34716639 -72.96484375 88.6640625 C-63.32538823 80.00252276 -52.1511629 75.87428382 -40 72 C-40.60328125 71.54109375 -41.2065625 71.0821875 -41.828125 70.609375 C-42.62734375 69.99578125 -43.4265625 69.3821875 -44.25 68.75 C-45.03890625 68.14671875 -45.8278125 67.5434375 -46.640625 66.921875 C-48.92885226 65.05795478 -51.02435488 63.19314734 -53 61 C-53 60.34 -53 59.68 -53 59 C-53.66 59 -54.32 59 -55 59 C-61.17909937 46.38237342 -64.14184502 35.54957782 -60.046875 21.77734375 C-57.42540994 14.82263607 -53.54309367 8.92719437 -48 4 C-47.34 3.34 -46.68 2.68 -46 2 C-45.01 2 -44.02 2 -43 2 C-43 1.34 -43 0.68 -43 0 C-28.95762224 -6.83802743 -13.95279138 -7.98625907 0 0 Z " fill="#4E6B78" transform="translate(362,98)"/>
<path d="M0 0 C2.02272421 0.0369245 4.04362087 0.04101453 6.06665039 0.04052734 C21.97364457 0.18178334 35.42196232 3.96036158 47.09985352 15.25537109 C56.83821849 25.6539642 57.19360352 35.36096741 57.19360352 49.41162109 C20.89360352 49.41162109 -15.40639648 49.41162109 -52.80639648 49.41162109 C-52.80639648 35.58820972 -51.8622957 24.49552935 -42.11889648 14.16162109 C-30.12169936 3.08041109 -16.00156351 -0.30143618 0 0 Z " fill="#C1CED6" transform="translate(151.806396484375,332.58837890625)"/>
<path d="M0 0 C10.11507917 10.5864615 11 20.30868019 11 35 C-24.64 35 -60.28 35 -97 35 C-97 21.53792295 -94.44200089 10.09317337 -85 0 C-84.34 0 -83.68 0 -83 0 C-83 -0.66 -83 -1.32 -83 -2 C-58.20097189 -15.88349845 -23.41580674 -19.59281788 0 0 Z " fill="#C2CFD7" transform="translate(383,194)"/>
<path d="M0 0 C6.68523522 6.32387115 10.26243627 13.97252201 10.6875 23.25 C9.65793661 34.06041557 4.85699306 41.43929988 -3.3359375 48.41796875 C-9.92055156 53.37283614 -16.60409921 53.98657544 -24.6875 53.1875 C-32.7678954 51.93919971 -38.3896505 47.22501435 -43.6875 41.1875 C-48.58812853 33.41602272 -50.58347001 26.35585068 -49.6875 17.1875 C-48.04165084 11.7041787 -45.16695507 6.71079159 -41.6875 2.1875 C-41.0275 2.1875 -40.3675 2.1875 -39.6875 2.1875 C-39.6875 1.5275 -39.6875 0.8675 -39.6875 0.1875 C-26.02873989 -8.09628507 -13.63380623 -9.19489257 0 0 Z " fill="#C1CED6" transform="translate(173.6875,260.8125)"/>
<path d="M0 0 C-0.33 0.66 -0.66 1.32 -1 2 C-1.66 2 -2.32 2 -3 2 C-3 2.66 -3 3.32 -3 4 C-2.38125 3.649375 -1.7625 3.29875 -1.125 2.9375 C-0.073125 2.4734375 -0.073125 2.4734375 1 2 C1.66 2.33 2.32 2.66 3 3 C2.61504107 8.51774471 0.8640976 10.2237228 -3 14 C-9.44676936 23.29314999 -10.88929504 32.89295036 -12 44 C23.64 44 59.28 44 96 44 C94.79872161 26.51113001 94.79872161 26.51113001 86.62109375 12.2265625 C85.15126503 10.20776161 84.03882883 8.26371655 83 6 C87.30769231 2.92307692 87.30769231 2.92307692 90.8125 3.3125 C91.8953125 3.6528125 91.8953125 3.6528125 93 4 C93.495 5.485 93.495 5.485 94 7 C95.36125 7.2784375 95.36125 7.2784375 96.75 7.5625 C101.83179571 9.81021733 103.05419006 13.99543579 105 19 C105.89753852 21.64871423 106.52890269 24.24462852 107 27 C107.11085938 27.63808594 107.22171875 28.27617187 107.3359375 28.93359375 C108.04814049 34.02488271 108.22133583 39.17803696 108.375 44.3125 C108.41318848 45.00666016 108.45137695 45.70082031 108.49072266 46.41601562 C108.54487795 49.74292882 108.33233477 51.59685014 106.19300842 54.19203186 C101.35905967 56.92914501 96.85411921 56.54943581 91.38842773 56.50170898 C90.21394073 56.50711197 89.03945374 56.51251495 87.82937622 56.51808167 C84.61645793 56.52843277 81.4042107 56.52088241 78.19133639 56.50437045 C74.82596358 56.49049707 71.46062121 56.4969825 68.0952301 56.50050354 C62.44531628 56.5032035 56.79561516 56.48974745 51.14575195 56.46655273 C44.6160327 56.43993127 38.08666874 56.43820067 31.55691379 56.4499411 C25.27084274 56.46072334 18.98490006 56.4545292 12.69883919 56.44038582 C10.02546207 56.43463113 7.35217906 56.43470455 4.67880058 56.43945122 C0.94637349 56.44235498 -2.78546896 56.42589576 -6.51782227 56.40405273 C-7.6270253 56.40855438 -8.73622833 56.41305603 -9.87904358 56.41769409 C-11.40362183 56.40283714 -11.40362183 56.40283714 -12.95899963 56.38768005 C-14.28217115 56.38403521 -14.28217115 56.38403521 -15.6320734 56.38031673 C-18.52111376 55.91630303 -19.90156469 55.01571591 -22 53 C-22.87168225 48.43054987 -22.60164914 43.7676274 -22.5625 39.125 C-22.58634766 37.86429688 -22.61019531 36.60359375 -22.63476562 35.3046875 C-22.61705856 23.83051129 -20.08005269 13.26523253 -12.125 4.6875 C-11.32320313 3.78386719 -10.52140625 2.88023437 -9.6953125 1.94921875 C-6.27578946 -0.52374067 -4.1265521 -0.38021057 0 0 Z " fill="#4F6D7A" transform="translate(298,185)"/>
<path d="M0 0 C6.40394316 4.87329945 11.34253386 10.48164951 12.70703125 18.55859375 C13.22620626 24.43748724 13.4185169 29.09196159 11.22265625 34.69140625 C10.83078125 35.84640625 10.43890625 37.00140625 10.03515625 38.19140625 C6.43202921 45.14916881 0.73449187 50.27501157 -6.77734375 52.69140625 C-15.55645297 54.43696013 -23.28086683 53.84289186 -31.05078125 49 C-38.60288077 43.27612366 -42.77329872 35.66267343 -44.12109375 26.3046875 C-44.4569079 18.28712455 -42.16222643 11.95080074 -36.96484375 5.87890625 C-27.28018251 -4.30331557 -12.64388022 -7.40901829 0 0 Z " fill="#C1CFD6" transform="translate(355.77734375,108.30859375)"/>
<path d="M0 0 C1.21201776 3.63605328 1.16223168 6.98723099 1.16796875 10.7734375 C1.17296135 11.91457504 1.17296135 11.91457504 1.17805481 13.07876587 C1.18311467 14.68759558 1.18546343 16.29643578 1.18530273 17.90527344 C1.18748568 20.35890131 1.20564118 22.81207687 1.22460938 25.265625 C1.22754426 26.83072763 1.22952842 28.3958324 1.23046875 29.9609375 C1.23765427 30.69130219 1.24483978 31.42166687 1.25224304 32.17416382 C1.23339479 36.40536563 1.17255309 40.82744691 -2 44 C-8.35537497 44.47076852 -8.35537497 44.47076852 -10.69458008 42.76245117 C-12.32080103 40.56688561 -12.42062815 39.26528098 -12.51171875 36.55078125 C-12.54716797 35.70322266 -12.58261719 34.85566406 -12.61914062 33.98242188 C-12.65297852 32.66081055 -12.65297852 32.66081055 -12.6875 31.3125 C-12.72166016 30.41982422 -12.75582031 29.52714844 -12.79101562 28.60742188 C-12.87345648 26.40507329 -12.94261551 24.20312062 -13 22 C-13.39034424 22.49226074 -13.78068848 22.98452148 -14.18286133 23.49169922 C-14.7064624 24.13123535 -15.23006348 24.77077148 -15.76953125 25.4296875 C-16.28362549 26.06632324 -16.79771973 26.70295898 -17.32739258 27.35888672 C-19 29 -19 29 -22.6875 30.125 C-26 30 -26 30 -27.9375 28.9375 C-29.45929053 26.16247021 -29.32443143 24.11454177 -29 21 C-28.34 20.01 -27.68 19.02 -27 18 C-26.34 18 -25.68 18 -25 18 C-25 17.34 -25 16.68 -25 16 C-24.34 16 -23.68 16 -23 16 C-23 15.34 -23 14.68 -23 14 C-24.18078125 14.16757812 -25.3615625 14.33515625 -26.578125 14.5078125 C-28.13533099 14.7141892 -29.69262763 14.91988266 -31.25 15.125 C-32.02730469 15.23714844 -32.80460937 15.34929687 -33.60546875 15.46484375 C-39.32833012 16.19854393 -39.32833012 16.19854393 -42.484375 15.265625 C-44 14 -44 14 -45 10.625 C-45 7 -45 7 -43.43286133 4.86621094 C-40.31942996 2.47794507 -37.94432703 2.10725323 -34.07421875 1.515625 C-33.07549492 1.35764435 -33.07549492 1.35764435 -32.05659485 1.19647217 C-30.65161737 0.97730962 -29.24539947 0.76597247 -27.83813477 0.56201172 C-25.70231004 0.25214862 -23.57109308 -0.0806294 -21.43945312 -0.41796875 C-4.52908843 -3.01939229 -4.52908843 -3.01939229 0 0 Z " fill="#4E6B78" transform="translate(349,260)"/>
<path d="M0 0 C2.41976195 3.62964292 2.77289157 4.71898372 2 9 C-0.22395101 12.10044935 -2.88147532 14.67227791 -5.625 17.3125 C-6.33785156 18.04017578 -7.05070312 18.76785156 -7.78515625 19.51757812 C-10.92014336 22.60367094 -13.14012949 24.72531914 -17.375 26.078125 C-20 26 -20 26 -22.375 24.4375 C-24 22 -24 22 -24.6875 19.25 C-23.63176172 14.25923724 -20.52282823 11.54926597 -17 8 C-16.28199219 7.25621094 -15.56398437 6.51242187 -14.82421875 5.74609375 C-7.60650153 -1.62996461 -7.60650153 -1.62996461 0 0 Z " fill="#536F7B" transform="translate(260,348)"/>
<path d="M0 0 C3.46123493 0.71156078 4.66747546 1.63449538 6.66015625 4.546875 C7.19921875 7.203125 7.19921875 7.203125 6.66015625 10.546875 C4.65175605 13.50714536 2.20987675 15.92537447 -0.33984375 18.421875 C-0.98824219 19.11023438 -1.63664062 19.79859375 -2.3046875 20.5078125 C-5.59461361 23.7912239 -7.92214007 25.98866837 -12.7109375 26.09375 C-16.33984375 25.546875 -16.33984375 25.546875 -18.40234375 23.921875 C-19.73256739 20.55197511 -19.39360965 19.04309055 -18.33984375 15.546875 C-16.20365337 12.65104231 -13.72072039 10.18425859 -11.15234375 7.671875 C-10.49169922 6.98351562 -9.83105469 6.29515625 -9.15039062 5.5859375 C-4.23336629 0.69318278 -4.23336629 0.69318278 0 0 Z " fill="#546F7C" transform="translate(283.33984375,318.453125)"/>
<path d="M0 0 C2 2 2 2 2.1953125 4.1640625 C2.17210937 4.97617187 2.14890625 5.78828125 2.125 6.625 C2.10695313 7.44226563 2.08890625 8.25953125 2.0703125 9.1015625 C2.04710937 9.72804688 2.02390625 10.35453125 2 11 C1.34 11 0.68 11 0 11 C0 11.66 0 12.32 0 13 C-1.71484375 14.65625 -1.71484375 14.65625 -3.9375 16.5 C-6.92045179 18.88926999 -6.92045179 18.88926999 -9 22 C-9.66 22 -10.32 22 -11 22 C-11 22.66 -11 23.32 -11 24 C-18.38533178 24.48428405 -18.38533178 24.48428405 -21.0625 22.375 C-22.38150636 19.03351723 -22.01743008 17.46498276 -21 14 C-19.04907875 11.2715994 -16.76206425 8.97285169 -14.375 6.625 C-13.77042969 5.98433594 -13.16585938 5.34367187 -12.54296875 4.68359375 C-8.49966066 0.64028566 -5.97813448 -1.01849699 0 0 Z " fill="#56717C" transform="translate(314,292)"/>
<path d="M0 0 C4.23489098 1.40909142 6.96386062 3.44160347 10.25 6.4375 C11.12140625 7.21996094 11.9928125 8.00242188 12.890625 8.80859375 C15 11 15 11 16 14 C12.16098132 13.45156876 10.63836495 11.7234735 8 9 C7.01 8.67 6.02 8.34 5 8 C4.67 8.66 4.34 9.32 4 10 C2.35857037 11.0409066 0.69287785 12.04504326 -1 13 C-0.835 12.38125 -0.67 11.7625 -0.5 11.125 C0.07634644 9.03936614 0.07634644 9.03936614 0 7 C0 4.66666667 0 2.33333333 0 0 Z " fill="#4F6B79" transform="translate(381,180)"/>
<path d="M0 0 C1.9451 2.91765 2.45276317 4.62537285 3 8 C4.98 8 6.96 8 9 8 C8.02526874 9.66926454 7.04510211 11.33535642 6.0625 13 C5.51722656 13.928125 4.97195312 14.85625 4.41015625 15.8125 C3.94480469 16.534375 3.47945312 17.25625 3 18 C2.67 18 2.34 18 2 18 C1.855625 16.88625 1.71125 15.7725 1.5625 14.625 C1.21627965 11.17857953 1.21627965 11.17857953 0 9 C0.66 9 1.32 9 2 9 C2 8.34 2 7.68 2 7 C1.443125 7.28875 0.88625 7.5775 0.3125 7.875 C-2.08494645 9.0413253 -4.51596939 10.0339881 -7 11 C-5.22054913 6.95579349 -2.60470327 3.53921513 0 0 Z " fill="#4E6A77" transform="translate(100,340)"/>
<path d="M0 0 C0 0.99 0 1.98 0 3 C-0.99 3.495 -0.99 3.495 -2 4 C-0.68 5.32 0.64 6.64 2 8 C1.01 8.99 0.02 9.98 -1 11 C-1.99 10.34 -2.98 9.68 -4 9 C-7.14221967 9.31506627 -7.14221967 9.31506627 -10 10 C-10.66 9.01 -11.32 8.02 -12 7 C-11.071875 6.401875 -10.14375 5.80375 -9.1875 5.1875 C-6.11316856 3.2345415 -6.11316856 3.2345415 -4.3125 1.25 C-3 0 -3 0 0 0 Z " fill="#496773" transform="translate(133,253)"/>
<path d="M0 0 C0 1.32 0 2.64 0 4 C-0.99 4.495 -0.99 4.495 -2 5 C-3.13350534 7.01669827 -3.13350534 7.01669827 -4 9 C-4.33 7.68 -4.66 6.36 -5 5 C-5.66 5 -6.32 5 -7 5 C-7.4021875 6.7015625 -7.4021875 6.7015625 -7.8125 8.4375 C-8.204375 9.613125 -8.59625 10.78875 -9 12 C-9.99 12.33 -10.98 12.66 -12 13 C-12 14.32 -12 15.64 -12 17 C-12.99 17 -13.98 17 -15 17 C-13.15309128 10.1160675 -8.13132041 0 0 0 Z " fill="#697E86" transform="translate(319,100)"/>
<path d="M0 0 C0.66 0.66 1.32 1.32 2 2 C1.01 2.99 0.02 3.98 -1 5 C-1.33 4.01 -1.66 3.02 -2 2 C-1.34 1.34 -0.68 0.68 0 0 Z M-6 2 C-5.34 2.33 -4.68 2.66 -4 3 C-4 4.65 -4 6.3 -4 8 C-4.66 8 -5.32 8 -6 8 C-6 8.99 -6 9.98 -6 11 C-5.67 10.34 -5.34 9.68 -5 9 C-4.34 9 -3.68 9 -3 9 C-3 7.68 -3 6.36 -3 5 C-2.34 5 -1.68 5 -1 5 C-1 7.31 -1 9.62 -1 12 C-2.98 12 -4.96 12 -7 12 C-7.12375 11.195625 -7.2475 10.39125 -7.375 9.5625 C-7.684375 8.2940625 -7.684375 8.2940625 -8 7 C-8.66 6.67 -9.32 6.34 -10 6 C-8.68 4.68 -7.36 3.36 -6 2 Z " fill="#456572" transform="translate(110,336)"/>
<path d="M0 0 C0.93972656 0.2165625 0.93972656 0.2165625 1.8984375 0.4375 C3.12433594 0.7159375 3.12433594 0.7159375 4.375 1 C5.18710937 1.185625 5.99921875 1.37125 6.8359375 1.5625 C8.95874951 2.06605239 8.95874951 2.06605239 11 2 C11.33 3.65 11.66 5.3 12 7 C12.99 7.33 13.98 7.66 15 8 C14.34 8 13.68 8 13 8 C13.33 8.99 13.66 9.98 14 11 C9.96407129 9.63079505 7.32473622 7.80419512 4.1875 4.9375 C3.39730469 4.22464844 2.60710937 3.51179687 1.79296875 2.77734375 C1.20128906 2.19082031 0.60960937 1.60429687 0 1 C0 0.67 0 0.34 0 0 Z " fill="#5C7680" transform="translate(310,159)"/>
<path d="M0 0 C0.33 0 0.66 0 1 0 C1.33 1.65 1.66 3.3 2 5 C2.66 5 3.32 5 4 5 C4 5.99 4 6.98 4 8 C4.66 8.33 5.32 8.66 6 9 C5.01 11.97 4.02 14.94 3 18 C2.01 17.67 1.02 17.34 0 17 C0 11.39 0 5.78 0 0 Z " fill="#405E6A" transform="translate(276,218)"/>
<path d="M0 0 C1.09248047 0.37705078 1.09248047 0.37705078 2.20703125 0.76171875 C1.54703125 1.42171875 0.88703125 2.08171875 0.20703125 2.76171875 C-1.11296875 2.76171875 -2.43296875 2.76171875 -3.79296875 2.76171875 C-4.04046875 3.50421875 -4.28796875 4.24671875 -4.54296875 5.01171875 C-5.91578113 8.03190599 -7.24116967 9.66023716 -9.79296875 11.76171875 C-12.04296875 12.51171875 -12.04296875 12.51171875 -13.79296875 12.76171875 C-12.26283864 9.20232519 -10.15670584 6.7334049 -7.48046875 3.94921875 C-6.72121094 3.13839844 -5.96195312 2.32757813 -5.1796875 1.4921875 C-2.79296875 -0.23828125 -2.79296875 -0.23828125 0 0 Z " fill="#617682" transform="translate(278.79296875,323.23828125)"/>
<path d="M0 0 C-1.5625 2.9375 -1.5625 2.9375 -4 6 C-7.75 6.875 -7.75 6.875 -11 7 C-11.66 6.01 -12.32 5.02 -13 4 C-12.01 3.34 -11.02 2.68 -10 2 C-10 2.99 -10 3.98 -10 5 C-9.34 5 -8.68 5 -8 5 C-8 4.34 -8 3.68 -8 3 C-5.65966534 -0.20256322 -3.8395009 -0.31131088 0 0 Z " fill="#677A85" transform="translate(334,283)"/>
<path d="M0 0 C0.66 0.33 1.32 0.66 2 1 C2 1.99 2 2.98 2 4 C1.05125 4.2475 0.1025 4.495 -0.875 4.75 C-4.47798453 6.19119381 -4.45796897 6.7103338 -6 10 C-8.625 11.25 -8.625 11.25 -11 12 C-9.49650623 8.33213607 -7.36271208 6.31089607 -4.375 3.75 C-3.14910156 2.69039062 -3.14910156 2.69039062 -1.8984375 1.609375 C-1.27195313 1.07828125 -0.64546875 0.5471875 0 0 Z " fill="#70848D" transform="translate(132,248)"/>
<path d="M0 0 C7.09629025 -0.31461385 12.68284595 -0.44572039 19 3 C15.98680421 3.92031998 13.73442832 4.00436613 10.625 3.5625 C7.05345831 3.10203677 3.607644 2.90749631 0 3 C0 2.01 0 1.02 0 0 Z " fill="#71848F" transform="translate(148,242)"/>
<path d="M0 0 C0.66 0 1.32 0 2 0 C0.57708742 3.45992428 -1.05963093 5.02648569 -4.125 7.125 C-6.27359999 8.55696719 -6.27359999 8.55696719 -8 10 C-8 10.66 -8 11.32 -8 12 C-9.65 12 -11.3 12 -13 12 C-12.34 11.67 -11.68 11.34 -11 11 C-11.99 9.68 -12.98 8.36 -14 7 C-13.113125 7.04125 -12.22625 7.0825 -11.3125 7.125 C-7.98134553 6.99929606 -5.91569068 6.58280351 -3 5 C-2.67 4.01 -2.34 3.02 -2 2 C-1.34 2 -0.68 2 0 2 C0 1.34 0 0.68 0 0 Z " fill="#788E97" transform="translate(182,311)"/>
<path d="M0 0 C4.67248931 2.82522609 7.65996398 5.67760044 11 10 C9.68 10.33 8.36 10.66 7 11 C6.608125 10.21625 6.21625 9.4325 5.8125 8.625 C3.75725331 5.64843582 2.40320742 5.01176437 -1 4 C-0.67 2.68 -0.34 1.36 0 0 Z " fill="#697D86" transform="translate(386,183)"/>
<path d="M0 0 C2 3 2 3 1.8125 5.0625 C0.53534848 8.10801517 -1.75812329 8.89874928 -4.6875 10.125 C-5.450625 10.41375 -6.21375 10.7025 -7 11 C-5.22054913 6.95579349 -2.60470327 3.53921513 0 0 Z " fill="#667A86" transform="translate(100,340)"/>
<path d="M0 0 C0.33 0.66 0.66 1.32 1 2 C1.66 2.33 2.32 2.66 3 3 C3 4.65 3 6.3 3 8 C1.35 8.33 -0.3 8.66 -2 9 C-2.33 8.01 -2.66 7.02 -3 6 C-3.66 5.01 -4.32 4.02 -5 3 C-4.360625 2.87625 -3.72125 2.7525 -3.0625 2.625 C-2.0415625 2.315625 -2.0415625 2.315625 -1 2 C-0.67 1.34 -0.34 0.68 0 0 Z " fill="#456573" transform="translate(192,330)"/>
<path d="M0 0 C0.5775 0.226875 1.155 0.45375 1.75 0.6875 C1.09 1.3475 0.43 2.0075 -0.25 2.6875 C-1.24 2.6875 -2.23 2.6875 -3.25 2.6875 C-3.45625 3.326875 -3.6625 3.96625 -3.875 4.625 C-5.25 6.6875 -5.25 6.6875 -8.375 7.4375 C-9.798125 7.56125 -9.798125 7.56125 -11.25 7.6875 C-3.32142857 -0.46130952 -3.32142857 -0.46130952 0 0 Z " fill="#6B7F88" transform="translate(112.25,332.3125)"/>
<path d="M0 0 C0.391875 0.45375 0.78375 0.9075 1.1875 1.375 C3.30832487 3.27642919 5.33042235 4.06204028 8 5 C6.68 6.65 5.36 8.3 4 10 C3.13342884 8.90554162 2.28207276 7.79902219 1.4375 6.6875 C0.96183594 6.07261719 0.48617187 5.45773437 -0.00390625 4.82421875 C-0.33261719 4.22222656 -0.66132812 3.62023437 -1 3 C-0.67 2.01 -0.34 1.02 0 0 Z " fill="#5C757E" transform="translate(118,301)"/>
<path d="M0 0 C0.33 0.66 0.66 1.32 1 2 C-2.96 2.66 -6.92 3.32 -11 4 C-11 3.34 -11 2.68 -11 2 C-11.99 1.67 -12.98 1.34 -14 1 C-9.27685687 0.22887459 -4.78478822 -0.09764874 0 0 Z " fill="#64777F" transform="translate(346,258)"/>
<path d="M0 0 C0.268125 0.598125 0.53625 1.19625 0.8125 1.8125 C2.71162349 5.31088537 4.20036361 6.73345454 8 8 C8 8.66 8 9.32 8 10 C5.125 9.6875 5.125 9.6875 2 9 C-0.29013653 5.5647952 -0.17842973 4.014669 0 0 Z " fill="#7C8F98" transform="translate(236,364)"/>
<path d="M0 0 C1.0725 0.2475 2.145 0.495 3.25 0.75 C0.85236815 3.14763185 -0.08273498 3.09280586 -3.375 3.375 C-4.19226563 3.44976562 -5.00953125 3.52453125 -5.8515625 3.6015625 C-6.47804687 3.65054687 -7.10453125 3.69953125 -7.75 3.75 C-5.15187156 0.32047046 -4.43092205 -0.2953948 0 0 Z " fill="#738893" transform="translate(256.75,347.25)"/>
<path d="M0 0 C2.97 0.33 5.94 0.66 9 1 C8.67 1.66 8.34 2.32 8 3 C6.35 2.67 4.7 2.34 3 2 C3 2.66 3 3.32 3 4 C2.01 3.67 1.02 3.34 0 3 C0 2.01 0 1.02 0 0 Z M7 3 C7.99 4.485 7.99 4.485 9 6 C8.34 6 7.68 6 7 6 C7 5.01 7 4.02 7 3 Z " fill="#486371" transform="translate(301,179)"/>
<path d="M0 0 C0.99 0.33 1.98 0.66 3 1 C1.52307692 6.66153846 1.52307692 6.66153846 -1.125 8.375 C-1.74375 8.58125 -2.3625 8.7875 -3 9 C-2.44271087 5.65626525 -1.64826111 2.96687001 0 0 Z " fill="#6D838B" transform="translate(92,352)"/>
<path d="M0 0 C0.99 0.66 1.98 1.32 3 2 C1.68 3.65 0.36 5.3 -1 7 C-2.32 6.34 -3.64 5.68 -5 5 C-3.35 3.35 -1.7 1.7 0 0 Z " fill="#6D808A" transform="translate(248,351)"/>
<path d="M0 0 C0.33 0.99 0.66 1.98 1 3 C-1.3125 6.1875 -1.3125 6.1875 -4 9 C-4.66 9 -5.32 9 -6 9 C-5.52797514 4.75177626 -3.03344482 2.80010291 0 0 Z " fill="#6E808B" transform="translate(291,185)"/>
<path d="M0 0 C1.32 0.66 2.64 1.32 4 2 C3.38125 2.598125 2.7625 3.19625 2.125 3.8125 C-0.13676954 6.00811144 -0.13676954 6.00811144 -2 9 C-2.25 3.375 -2.25 3.375 0 0 Z " fill="#718490" transform="translate(322,278)"/>
<path d="M0 0 C2.31 0.66 4.62 1.32 7 2 C7.33 3.65 7.66 5.3 8 7 C4.2047869 5.50902342 2.38957269 3.24299151 0 0 Z " fill="#6B7F8C" transform="translate(310,159)"/>
<path d="M0 0 C1.98 0.495 1.98 0.495 4 1 C1.25 5.875 1.25 5.875 -1 7 C-0.67 4.69 -0.34 2.38 0 0 Z " fill="#5C717A" transform="translate(303,117)"/>
<path d="M0 0 C0.86625 0.556875 0.86625 0.556875 1.75 1.125 C1.42 1.785 1.09 2.445 0.75 3.125 C-1.56 2.465 -3.87 1.805 -6.25 1.125 C-2.80384615 -1.09038462 -2.80384615 -1.09038462 0 0 Z " fill="#B7CAD2" transform="translate(335.25,105.875)"/>
<path d="M0 0 C0.99 0.99 1.98 1.98 3 3 C1.125 3.625 1.125 3.625 -1 4 C-1.66 3.34 -2.32 2.68 -3 2 C-2.01 2 -1.02 2 0 2 C0 1.34 0 0.68 0 0 Z M-3 4 C-2.34 4 -1.68 4 -1 4 C-0.67 4.99 -0.34 5.98 0 7 C-0.99 7.495 -0.99 7.495 -2 8 C-2.66 7.34 -3.32 6.68 -4 6 C-3.67 5.34 -3.34 4.68 -3 4 Z " fill="#5F7B89" transform="translate(205,338)"/>
<path d="M0 0 C0.33 0.66 0.66 1.32 1 2 C0.67 2.66 0.34 3.32 0 4 C0.66 4.33 1.32 4.66 2 5 C-0.475 6.485 -0.475 6.485 -3 8 C-3 4.42424104 -1.91159393 2.94704065 0 0 Z " fill="#81929B" transform="translate(283,194)"/>
<path d="M0 0 C0.33 0.66 0.66 1.32 1 2 C-1.17424117 4.50037734 -2.73045798 5.43628586 -6 6 C-4.95125002 3.37812506 -4.35068687 2.20628639 -1.875 0.75 C-1.25625 0.5025 -0.6375 0.255 0 0 Z " fill="#6B7E87" transform="translate(271,330)"/>
<path d="M0 0 C1.65 1.65 3.3 3.3 5 5 C3.02 5.66 1.04 6.32 -1 7 C-0.67 4.69 -0.34 2.38 0 0 Z " fill="#B2C5CD" transform="translate(381,193)"/>
<path d="M0 0 C0 0.99 0 1.98 0 3 C-2.5 5.1875 -2.5 5.1875 -5 7 C-5 5.35 -5 3.7 -5 2 C-3.35 1.34 -1.7 0.68 0 0 Z " fill="#83939E" transform="translate(289,327)"/>
<path d="M0 0 C0 0.99 0 1.98 0 3 C-2.5 4.6875 -2.5 4.6875 -5 6 C-5 5.01 -5 4.02 -5 3 C-2.5 1.3125 -2.5 1.3125 0 0 Z " fill="#657783" transform="translate(127,254)"/>
<path d="M0 0 C0.66 0.33 1.32 0.66 2 1 C2 1.99 2 2.98 2 4 C-1 5 -1 5 -3.1875 4.0625 C-3.785625 3.711875 -4.38375 3.36125 -5 3 C-2.625 1.4375 -2.625 1.4375 0 0 Z " fill="#697D88" transform="translate(307,175)"/>
<path d="M0 0 C0.66 0 1.32 0 2 0 C2 0.66 2 1.32 2 2 C2.99 2.33 3.98 2.66 5 3 C3.02 3.99 3.02 3.99 1 5 C0.34 3.68 -0.32 2.36 -1 1 C-0.67 0.67 -0.34 0.34 0 0 Z " fill="#5C7481" transform="translate(89,388)"/>
<path d="M0 0 C0.99 0.33 1.98 0.66 3 1 C1.93453047 3.13093906 0.70840281 4.36587557 -1 6 C-1.66 4.68 -2.32 3.36 -3 2 C-2.01 1.34 -1.02 0.68 0 0 Z " fill="#5D727D" transform="translate(115,329)"/>
</svg>
